inDegrees=yes
name=ik_S52_A08_T02
DataType=double
version=3
OpenSimVersion=4.3-2021-08-27-4bc7ad9
endheader
time	pelvis_tilt	pelvis_list	pelvis_rotation	pelvis_tx	pelvis_ty	pelvis_tz	hip_flexion_r	hip_adduction_r	hip_rotation_r	knee_angle_r	knee_angle_r_beta	ankle_angle_r	subtalar_angle_r	mtp_angle_r	hip_flexion_l	hip_adduction_l	hip_rotation_l	knee_angle_l	knee_angle_l_beta	ankle_angle_l	subtalar_angle_l	mtp_angle_l	lumbar_extension	lumbar_bending	lumbar_rotation	arm_flex_r	arm_add_r	arm_rot_r	elbow_flex_r	pro_sup_r	wrist_flex_r	wrist_dev_r	arm_flex_l	arm_add_l	arm_rot_l	elbow_flex_l	pro_sup_l	wrist_flex_l	wrist_dev_l
16.19999999999974	-4.038932503392505	0.4071531895958976	13.73609179205745	0	0.9399999999999999	0	42.78288112025542	-10.02059058015695	-10.08026002531045	55.88339946375194	0.9753493178497049	0	0	0	42.78288112025542	-10.02059058015695	-10.08026002531045	55.88339946375194	0.9753493178497049	0	0	0	-2.349631880360931	-1.763246719292415	8.742652536082208	32.94973196837302	-10.3203764841331	-10.46760849295919	31.68510331606958	143.2734875797662	0	0	68.30943652635852	-9.429780419095689	-4.064182874330925	32.50600883100051	89.6566110511319	0	0
16.21999999999974	-4.056209488051295	0.3880061071620001	13.73736523337648	0	0.9399999999999999	0	42.78344883879343	-10.02057254095558	-10.08021462278144	55.88324521931393	0.9753466257764088	0	0	0	42.78344883879343	-10.02057254095558	-10.08021462278144	55.88324521931393	0.9753466257764088	0	0	0	-2.371163137425676	-1.776521973480943	8.724566507572165	33.00242765823617	-10.31855890137337	-10.40973352607019	31.68640931047224	143.2548328325654	0	0	68.37070149714472	-9.514575068573217	-3.924655086343036	32.64634015022828	89.86827181415445	0	0
16.23999999999974	-4.062070035802866	0.3761514051849775	13.73502804344909	0	0.9399999999999999	0	42.78415334064517	-10.02054992376179	-10.08015788645338	55.88305580539766	0.9753433198799207	0	0	0	42.78415334064517	-10.02054992376179	-10.08015788645338	55.88305580539766	0.9753433198799207	0	0	0	-2.380039476113878	-1.785972912221012	8.723027224385758	33.0213507457608	-10.30297045004784	-10.41097686581315	31.67099919950292	143.2917523079204	0	0	68.32139843602496	-9.621259421622952	-3.713243663461261	33.01371096512867	90.04175937862007	0	0
16.25999999999974	-4.086108603544632	0.3653672089893961	13.74026719196562	0	0.9399999999999999	0	42.78495192586249	-10.02052431533414	-10.08009361252016	55.88284101772786	0.97533957112789	0	0	0	42.78495192586249	-10.02052431533414	-10.08009361252016	55.88284101772786	0.97533957112789	0	0	0	-2.406455730612494	-1.790071513771351	8.724835382494781	33.07706280064068	-10.30511531235015	-10.42066688239901	31.66920956082351	143.3088197218927	0	0	68.25174464257989	-9.746129421016507	-3.491031080766914	33.58433872665812	89.92017134366856	0	0
16.27999999999974	-4.059949807621581	0.3576450449024958	13.78341754984999	0	0.9399999999999999	0	42.7855639810992	-10.02050516392783	-10.08004513679101	55.88267272278779	0.9753366338270714	0	0	0	42.7855639810992	-10.02050516392783	-10.08004513679101	55.88267272278779	0.9753366338270714	0	0	0	-2.38324105911739	-1.802330392495343	8.699791982899322	33.0155183891186	-10.2802451937581	-10.46798407541395	31.6613091896866	143.322493627111	0	0	68.05477932141814	-9.886702457457053	-3.332910664978645	34.28377830349004	89.89939336673594	0	0
16.29999999999974	-4.074807392993675	0.344633823383629	13.88502636759679	0	0.9399999999999999	0	42.78629432636694	-10.02048244554675	-10.07998750656343	55.88247099484919	0.9753331130103494	0	0	0	42.78629432636694	-10.02048244554675	-10.07998750656343	55.88247099484919	0.9753331130103494	0	0	0	-2.40083912413644	-1.808665818020483	8.633862907277646	32.9966065392351	-10.33742720909542	-10.49858839274153	31.7301624853562	143.3032531570272	0	0	67.8776711306966	-9.996588497329519	-3.310630544634853	35.22177133853599	89.94452860001483	0	0
16.31999999999974	-4.082105234358079	0.3255617703604517	14.00433818564879	0	0.9399999999999999	0	42.78700582096111	-10.02045998805217	-10.07993081179962	55.88227723137079	0.9753297311996814	0	0	0	42.78700582096111	-10.02045998805217	-10.07993081179962	55.88227723137079	0.9753297311996814	0	0	0	-2.412041067349042	-1.821782898935409	8.552046215341639	33.00381151606296	-10.32210459251878	-10.5442314590648	31.70747148031365	143.3773997146245	0	0	67.71694430345396	-10.16415350706498	-3.321434225997434	36.31242737130753	89.8516530254813	0	0
16.33999999999974	-4.055404820027841	0.3295052033412664	14.1524857104742	0	0.9399999999999999	0	42.78781990942716	-10.02043454900273	-10.07986635744891	55.88205369077853	0.9753258296803345	0	0	0	42.78781990942716	-10.02043454900273	-10.07986635744891	55.88205369077853	0.9753258296803345	0	0	0	-2.385039883672204	-1.818286484814837	8.423394851570338	32.92236285921805	-10.34115773965267	-10.52141120822112	31.72429981462079	143.3324310655609	0	0	67.40971182188827	-10.38919395348755	-3.257579313622361	37.64128692655347	89.60383684407218	0	0
16.35999999999974	-4.03391621491731	0.3097223059617333	14.22227792968823	0	0.9399999999999999	0	42.78848362709162	-10.02041370131437	-10.07981363026742	55.88187228212447	0.9753226635020296	0	0	0	42.78848362709162	-10.02041370131437	-10.07981363026742	55.88187228212447	0.9753226635020296	0	0	0	-2.369624167841657	-1.841562634161644	8.401879501541536	32.87626751946454	-10.30330598496393	-10.5968439313479	31.69245440162262	143.4450891834549	0	0	67.09884568277336	-10.54505556074609	-3.002427657799259	38.58413330064948	89.39812851503144	0	0
16.37999999999974	-4.027030578229376	0.3061875983412874	14.10585004148721	0	0.9399999999999999	0	42.78994723921451	-10.02036772986546	-10.07969734590309	55.88147246964974	0.9753156854579549	0	0	0	42.78994723921451	-10.02036772986546	-10.07969734590309	55.88147246964974	0.9753156854579549	0	0	0	-2.363673940444434	-1.850705420519643	8.527019161521395	32.8782531124255	-10.3440249397321	-10.58545681844245	31.68102026357272	143.4646198584603	0	0	66.75730896516902	-10.74882035341856	-2.641531327712443	40.96847065235324	88.99993705061168	0	0
16.39999999999974	-4.029181754655428	0.290882510976797	14.13640660320953	0	0.9399999999999999	0	42.79080643845733	-10.02034058080421	-10.07962879490062	55.8812393468722	0.9753116166979255	0	0	0	42.79080643845733	-10.02034058080421	-10.07962879490062	55.8812393468722	0.9753116166979255	0	0	0	-2.370287205255923	-1.864697103810751	8.53303166841685	32.86512256050708	-10.35433625904073	-10.58801031298438	31.68740333157463	143.4099284691632	0	0	66.37557445485156	-10.90596921751767	-2.347182219525726	42.20068974435896	88.65060416007525	0	0
16.41999999999974	-4.024776440724443	0.2852184660968863	14.03259581428562	0	0.9399999999999999	0	42.79313043172101	-10.02026867574172	-10.07944573326485	55.88059988680866	0.9753004560143818	0	0	0	42.79313043172101	-10.02026867574172	-10.07944573326485	55.88059988680866	0.9753004560143818	0	0	0	-2.366056496389156	-1.874802381037858	8.642475376760682	32.84385808638632	-10.35845462709189	-10.53696882295964	31.71382687631604	143.3932582300258	0	0	65.92423369255711	-11.18997355060712	-1.998444630823773	45.19149408755231	87.813380666857	0	0
16.43999999999974	-4.019571566868459	0.2751243597309926	14.2596922520536	0	0.9399999999999999	0	42.79602506028742	-10.02017827133511	-10.07921622700224	55.87981162510131	0.9752866982522211	0	0	0	42.79602506028742	-10.02017827133511	-10.07921622700224	55.87981162510131	0.9752866982522211	0	0	0	-2.369314408497738	-1.880344013381978	8.449393731394451	32.79836137333229	-10.37336400716289	-10.58142965583127	31.75277797481023	143.4170141474462	0	0	65.07999905157345	-11.65737597205291	-1.755092687998473	48.83707807598525	87.05088058380957	0	0
16.45999999999974	-3.994702843209132	0.2606963340060694	14.32411370825351	0	0.9399999999999999	0	42.79689536007978	-10.0201505732135	-10.07914638265708	55.87957836529937	0.9752826271006646	0	0	0	42.79689536007978	-10.0201505732135	-10.07914638265708	55.87957836529937	0.9752826271006646	0	0	0	-2.349204785887685	-1.898901861780745	8.429220904501536	32.71746715340618	-10.36435927605798	-10.66775330927577	31.76150580884484	143.4511732162132	0	0	64.66222495262259	-11.85718734930908	-1.697303780250476	49.29259979219711	86.90276227808411	0	0
